<svg width="143" height="39" viewBox="0 0 143 39" fill="none" xmlns="http://www.w3.org/2000/svg">
<path d="M24.0866 31.3988H7.97257V1.78108H0.392453V38H24.0866V31.3988ZM45.7979 0.852394C35.1556 0.852394 28.3536 8.13132 28.3536 19.878C28.3536 31.6247 35.0552 38.9287 45.7979 38.9287C56.5155 38.9287 63.192 31.6247 63.192 19.878C63.192 8.15642 56.4904 0.852394 45.7979 0.852394ZM45.7979 7.50382C51.6963 7.50382 55.4613 12.2979 55.4613 19.878C55.4613 27.433 51.6963 32.2773 45.7979 32.2773C39.8492 32.2773 36.1094 27.433 36.1094 19.878C36.1094 12.2979 39.9245 7.50382 45.7979 7.50382ZM102.197 23.2163V18.5979H86.9865V24.2955H94.8428L94.8177 24.9481C94.6671 29.3155 91.2284 32.2522 86.2586 32.2522C80.2849 32.2522 76.5199 27.5334 76.5199 19.7776C76.5199 12.1724 80.1092 7.52892 85.9574 7.52892C90.1742 7.52892 93.2113 9.6624 94.3408 13.327H101.871C100.816 5.79704 94.5165 0.852394 85.9574 0.852394C75.4156 0.852394 68.7641 8.18152 68.7641 19.8529C68.7641 31.7 75.3654 38.9287 86.1331 38.9287C96.0224 38.9287 102.197 32.9048 102.197 23.2163ZM125.314 0.852394C114.672 0.852394 107.87 8.13132 107.87 19.878C107.87 31.6247 114.571 38.9287 125.314 38.9287C136.031 38.9287 142.708 31.6247 142.708 19.878C142.708 8.15642 136.006 0.852394 125.314 0.852394ZM125.314 7.50382C131.212 7.50382 134.977 12.2979 134.977 19.878C134.977 27.433 131.212 32.2773 125.314 32.2773C119.365 32.2773 115.625 27.433 115.625 19.878C115.625 12.2979 119.44 7.50382 125.314 7.50382Z" fill="url(#paint0_linear_1_12174)"/>
<defs>
<linearGradient id="paint0_linear_1_12174" x1="157.788" y1="57.2921" x2="47.7542" y2="-81.9694" gradientUnits="userSpaceOnUse">
<stop stop-color="#5961F8"/>
<stop offset="1" stop-color="#F2D9F7"/>
</linearGradient>
</defs>
</svg>
